<svg xmlns="http://www.w3.org/2000/svg" viewBox="0 0 512 512" role="img" aria-labelledby="title desc">
  <title id="title">MDence Page Mark</title>
  <desc id="desc">A centered page icon with an M and an accent dot.</desc>
  <defs>
    <filter id="shadow" x="-20%" y="-20%" width="140%" height="140%">
      <feDropShadow dx="0" dy="18" stdDeviation="22" flood-color="#04101d" flood-opacity="0.28" />
    </filter>
  </defs>

  <rect x="0" y="0" width="512" height="512" rx="128" fill="#0052CC" />

  <g filter="url(#shadow)">
    <path
      d="M148 92h162l90 90v158c0 42-32 74-74 74H186c-42 0-74-32-74-74V166c0-42 32-74 74-74z"
      fill="#f7fbff"
    />
    <path d="M310 92v80c0 25 21 46 46 46h44z" fill="#d7e7f2" />
  </g>

  <path
    d="M162 334V194c0-11 9-20 20-20h10c7 0 13 4 17 10l47 68 47-68c4-6 10-10 17-10h10c11 0 20 9 20 20v140"
    fill="none"
    stroke="#0f2740"
    stroke-linecap="round"
    stroke-linejoin="round"
    stroke-width="36"
  />
  <circle cx="346" cy="352" r="22" fill="#f4b23a" />
</svg>
